<svg id="コンポーネント_87" data-name="コンポーネント 87" xmlns="http://www.w3.org/2000/svg" width="160" height="40" viewBox="0 0 160 40">
  <rect id="Rectangle_14595" data-name="Rectangle 14595" width="160" height="40" fill="none"/>
  <g id="Nomura_logo" transform="translate(37.23 13)">
    <path id="Path_8473" data-name="Path 8473" d="M77,7.309C77,2.439,80.045,0,83.8,0s6.8,2.439,6.8,7.309-3.043,7.308-6.8,7.308S77,12.211,77,7.309m6.8,5.455c1.852,0,3.354-1.933,3.354-5.456,0-3.49-1.5-5.456-3.354-5.456s-3.355,1.966-3.355,5.456,1.5,5.456,3.355,5.456" transform="translate(-63.913 0)" fill="#fff"/>
    <path id="Path_8474" data-name="Path 8474" d="M0,3V16.427H2.345V7.408l7.241,9.02h1.972V3H9.325v7.4L3.313,3ZM75.868,3l-5.5,13.427h2.376l1.517-3.692h4.995l1.535,3.692h3.855L79.086,3Zm-.842,7.807L76.747,6.6l1.723,4.207H75.026ZM53.713,11.884c-.063,1.243-.159,2.473-1.537,2.933a4.213,4.213,0,0,1-2.379-.056,1.944,1.944,0,0,1-.731-.464,3.324,3.324,0,0,1-.656-2.041V3H44.871v8.884A5.55,5.55,0,0,0,45.9,15.335c1.372,1.7,3.886,1.939,5.919,1.688a5.166,5.166,0,0,0,3.259-1.5A4.668,4.668,0,0,0,56.185,13a6.375,6.375,0,0,0,.074-1.114V3H53.712v8.884h0Zm8.424-6.991c1.548,0,3.087-.262,3.761,1.341a2.928,2.928,0,0,1-.336,2.681,4.441,4.441,0,0,1-2.846.881l3.61,6.631h3.7l-3.275-5.913c1.952-.681,2.869-1.78,2.773-3.878A3.936,3.936,0,0,0,65.3,3H58.639s-.874,10.071,0,13.427,3.5,0,3.5,0V4.893ZM39.262,16.427,34.02,3H31.267L26.175,16.427h2.471l3.427-9.074,3.482,9.074ZM39.457,3H36.573l-.88,2.3L36.947,8.51l.45-1.157,3.389,9.074H44.7Z" transform="translate(0 -2.49)" fill="#fff" fill-rule="evenodd"/>
    <path id="Path_8475" data-name="Path 8475" d="M185.754,55,184,59.759h2.238l.651-1.792Z" transform="translate(-152.726 -45.652)" fill="#fff" fill-rule="evenodd"/>
  </g>
</svg>
