<svg id="コンポーネント_76" data-name="コンポーネント 76" xmlns="http://www.w3.org/2000/svg" width="320" height="64" viewBox="0 0 320 64">
  <rect id="Rectangle_14589" data-name="Rectangle 14589" width="320" height="64" fill="none"/>
  <g id="NOMURA_DIGITAL" data-name="NOMURA DIGITAL" transform="translate(23 19.906)" style="isolation: isolate">
    <g id="Group_23099" data-name="Group 23099" transform="translate(0 0.066)" style="isolation: isolate">
      <path id="Path_8459" data-name="Path 8459" d="M737.578,317.207l13.728,19.932h.066V317.207h2.244v23.562h-2.509l-13.728-19.932h-.066v19.932h-2.244V317.207Z" transform="translate(-735.069 -316.712)" fill="#bfa66c"/>
      <path id="Path_8460" data-name="Path 8460" d="M757.536,324.335a11.626,11.626,0,0,1,2.079-3.911,10.025,10.025,0,0,1,3.481-2.706,12.24,12.24,0,0,1,9.719,0,10.077,10.077,0,0,1,3.465,2.706,11.645,11.645,0,0,1,2.079,3.911,15.967,15.967,0,0,1,0,9.306,11.456,11.456,0,0,1-2.079,3.893,10.145,10.145,0,0,1-3.465,2.69,12.24,12.24,0,0,1-9.719,0,10.091,10.091,0,0,1-3.481-2.69,11.437,11.437,0,0,1-2.079-3.893,15.967,15.967,0,0,1,0-9.306Zm2.062,8.431a10.144,10.144,0,0,0,1.584,3.333,8,8,0,0,0,2.755,2.36,8.5,8.5,0,0,0,4.027.891,8.4,8.4,0,0,0,4.009-.891,8.033,8.033,0,0,0,2.739-2.36,10.144,10.144,0,0,0,1.584-3.333,14.262,14.262,0,0,0,0-7.574,10.173,10.173,0,0,0-1.584-3.316,8.009,8.009,0,0,0-2.739-2.359,8.4,8.4,0,0,0-4.009-.891,8.5,8.5,0,0,0-4.027.891,7.971,7.971,0,0,0-2.755,2.359,10.173,10.173,0,0,0-1.584,3.316,14.287,14.287,0,0,0,0,7.574Z" transform="translate(-735.069 -316.712)" fill="#bfa66c"/>
      <path id="Path_8461" data-name="Path 8461" d="M785.562,317.207l7.822,20.657,8.117-20.657h3.3v23.562h-2.244V320.407h-.066l-8.053,20.362h-2.111l-7.755-20.362h-.066v20.362h-2.244V317.207Z" transform="translate(-735.069 -316.712)" fill="#bfa66c"/>
      <path id="Path_8462" data-name="Path 8462" d="M811.214,317.207v14.586a11.421,11.421,0,0,0,.462,3.481,5.808,5.808,0,0,0,1.353,2.343,5.239,5.239,0,0,0,2.178,1.321,9.527,9.527,0,0,0,2.9.412,9.65,9.65,0,0,0,2.937-.412,5.239,5.239,0,0,0,2.178-1.321,5.82,5.82,0,0,0,1.353-2.343,11.451,11.451,0,0,0,.462-3.481V317.207h2.244v15.08a11.473,11.473,0,0,1-.512,3.449,7.564,7.564,0,0,1-1.617,2.855,7.694,7.694,0,0,1-2.838,1.93,12.741,12.741,0,0,1-8.382,0,7.7,7.7,0,0,1-2.838-1.93,7.564,7.564,0,0,1-1.617-2.855,11.472,11.472,0,0,1-.511-3.449v-15.08Z" transform="translate(-735.069 -316.712)" fill="#bfa66c"/>
      <path id="Path_8463" data-name="Path 8463" d="M842.306,317.207a10.276,10.276,0,0,1,2.756.362,6.682,6.682,0,0,1,2.277,1.106,5.352,5.352,0,0,1,1.551,1.914,6.178,6.178,0,0,1,.577,2.756,6.612,6.612,0,0,1-1.155,3.893,5.265,5.265,0,0,1-3.432,2.113v.066a5.229,5.229,0,0,1,1.914.61,3.849,3.849,0,0,1,1.238,1.139,4.7,4.7,0,0,1,.693,1.6,11.712,11.712,0,0,1,.28,1.963c.022.4.044.88.066,1.453s.066,1.149.132,1.732a10.673,10.673,0,0,0,.314,1.65,3.163,3.163,0,0,0,.577,1.205h-2.475a2.857,2.857,0,0,1-.313-.809,7.1,7.1,0,0,1-.165-.99c-.034-.341-.061-.676-.083-1.006s-.044-.616-.066-.859q-.066-1.253-.214-2.491a6.845,6.845,0,0,0-.627-2.211,3.892,3.892,0,0,0-1.386-1.567,4.179,4.179,0,0,0-2.492-.528h-8.514v10.461h-2.244V317.207Zm-.165,11.187a6.018,6.018,0,0,0,1.947-.314,4.867,4.867,0,0,0,1.617-.907,4.472,4.472,0,0,0,1.106-1.436,4.345,4.345,0,0,0,.412-1.93,4.636,4.636,0,0,0-1.254-3.432,5.209,5.209,0,0,0-3.828-1.255h-8.382v9.274Z" transform="translate(-735.069 -316.712)" fill="#bfa66c"/>
      <path id="Path_8464" data-name="Path 8464" d="M863.458,317.207l9.241,23.562H870.29l-2.871-7.327H856.694l-2.838,7.327h-2.377l9.472-23.562Zm3.2,14.321-4.554-12.078-4.719,12.078Z" transform="translate(-735.069 -316.712)" fill="#bfa66c"/>
    </g>
    <g id="Group_23100" data-name="Group 23100" transform="translate(149.291)" style="isolation: isolate">
      <path id="Path_8465" data-name="Path 8465" d="M894.524,317.207a12.141,12.141,0,0,1,4.242.726,9.219,9.219,0,0,1,3.4,2.177,10.064,10.064,0,0,1,2.244,3.63,14.683,14.683,0,0,1,.809,5.115,16.358,16.358,0,0,1-.66,4.752,10.478,10.478,0,0,1-2,3.762,9.362,9.362,0,0,1-3.333,2.492,11.273,11.273,0,0,1-4.7.908H884.36V317.207Zm-.362,19.2a6.658,6.658,0,0,0,2.178-.362,4.794,4.794,0,0,0,1.881-1.2,6.047,6.047,0,0,0,1.32-2.2,9.649,9.649,0,0,0,.495-3.3,13.738,13.738,0,0,0-.347-3.218,6.41,6.41,0,0,0-1.138-2.458,5.059,5.059,0,0,0-2.1-1.568,8.365,8.365,0,0,0-3.218-.544h-3.7v14.849Z" transform="translate(-884.36 -316.646)" fill="#bfa66c"/>
      <path id="Path_8466" data-name="Path 8466" d="M913.823,317.207v23.562h-5.181V317.207Z" transform="translate(-884.36 -316.646)" fill="#bfa66c"/>
      <path id="Path_8467" data-name="Path 8467" d="M932.2,340.587a8.686,8.686,0,0,1-3.4.71,12.076,12.076,0,0,1-4.867-.941,10.421,10.421,0,0,1-3.647-2.59,11.469,11.469,0,0,1-2.277-3.878,14.227,14.227,0,0,1-.792-4.8,14.715,14.715,0,0,1,.792-4.9,11.778,11.778,0,0,1,2.277-3.945,10.4,10.4,0,0,1,3.647-2.639,11.9,11.9,0,0,1,4.867-.957,11.44,11.44,0,0,1,3.514.544,9.965,9.965,0,0,1,3.07,1.6,8.64,8.64,0,0,1,3.349,6.171h-4.95A4.96,4.96,0,0,0,932,321.991a5.188,5.188,0,0,0-3.2-.989,6.059,6.059,0,0,0-2.97.676,5.6,5.6,0,0,0-1.979,1.815,7.935,7.935,0,0,0-1.106,2.591,12.9,12.9,0,0,0-.347,3,12,12,0,0,0,.347,2.887,7.785,7.785,0,0,0,1.106,2.525,5.643,5.643,0,0,0,1.979,1.8,6.048,6.048,0,0,0,2.97.677,5.057,5.057,0,0,0,5.61-5.082h-5.214V328.03h9.9v12.739h-3.3l-.527-2.673A7.782,7.782,0,0,1,932.2,340.587Z" transform="translate(-884.36 -316.646)" fill="#bfa66c"/>
      <path id="Path_8468" data-name="Path 8468" d="M948.476,317.207v23.562h-5.181V317.207Z" transform="translate(-884.36 -316.646)" fill="#bfa66c"/>
      <path id="Path_8469" data-name="Path 8469" d="M950.885,321.563v-4.356h19.3v4.356h-7.061v19.206h-5.181V321.563Z" transform="translate(-884.36 -316.646)" fill="#bfa66c"/>
      <path id="Path_8470" data-name="Path 8470" d="M981.957,317.207l8.812,23.562H985.39l-1.783-5.248H974.8l-1.848,5.248h-5.214l8.911-23.562Zm.3,14.453-2.97-8.645h-.065l-3.07,8.645Z" transform="translate(-884.36 -316.646)" fill="#bfa66c"/>
      <path id="Path_8471" data-name="Path 8471" d="M998.041,317.207v19.2h11.484v4.357H992.86V317.207Z" transform="translate(-884.36 -316.646)" fill="#bfa66c"/>
    </g>
  </g>
</svg>
